<svg width="24" height="23" viewBox="0 0 24 23" fill="none" xmlns="http://www.w3.org/2000/svg">
<path d="M22.9409 6.64694C22.9272 5.70069 22.7522 4.76194 22.4172 3.87694C21.8309 2.36569 20.6372 1.17069 19.1259 0.585694C18.2522 0.256944 17.3284 0.0806934 16.3934 0.0606934C15.1909 0.00694344 14.8097 -0.00805664 11.7572 -0.00805664C8.7047 -0.00805664 8.31345 -0.00805656 7.1197 0.0606934C6.18595 0.0806934 5.2622 0.256944 4.38845 0.585694C2.8772 1.17069 1.6822 2.36569 1.0972 3.87694C0.768448 4.75069 0.590948 5.67444 0.573448 6.60819C0.519698 7.81194 0.503448 8.19319 0.503448 11.2457C0.503448 14.2982 0.503448 14.6882 0.573448 15.8832C0.592198 16.8182 0.768448 17.7407 1.0972 18.6169C1.68345 20.1269 2.8772 21.3219 4.3897 21.9069C5.2597 22.2469 6.18345 22.4394 7.12095 22.4694C8.3247 22.5232 8.70595 22.5394 11.7584 22.5394C14.8109 22.5394 15.2022 22.5394 16.3959 22.4694C17.3297 22.4507 18.2534 22.2744 19.1284 21.9457C20.6397 21.3594 21.8335 20.1644 22.4197 18.6544C22.7484 17.7794 22.9247 16.8569 22.9434 15.9207C22.9972 14.7182 23.0134 14.3369 23.0134 11.2832C23.0109 8.23069 23.011 7.84319 22.9409 6.64694ZM11.7497 17.0182C8.5572 17.0182 5.97095 14.4319 5.97095 11.2394C5.97095 8.04694 8.5572 5.46069 11.7497 5.46069C14.9397 5.46069 17.5285 8.04694 17.5285 11.2394C17.5285 14.4319 14.9397 17.0182 11.7497 17.0182ZM17.7584 6.59444C17.0122 6.59444 16.4109 5.99194 16.4109 5.24694C16.4109 4.50194 17.0122 3.89944 17.7584 3.89944C18.5022 3.89944 19.1047 4.50194 19.1047 5.24694C19.1047 5.99194 18.5022 6.59444 17.7584 6.59444Z" fill="#64646A"/>
</svg>
